<svg width="24" height="20" viewBox="0 0 24 20" fill="none" xmlns="http://www.w3.org/2000/svg">
<path d="M21 1.9751H19.05V1.1501C19.05 0.700098 18.675 0.287598 18.1875 0.287598C17.7 0.287598 17.325 0.662598 17.325 1.1501V1.9751H6.63751V1.1501C6.63751 0.700098 6.26251 0.287598 5.77501 0.287598C5.28751 0.287598 4.91251 0.662598 4.91251 1.1501V1.9751H3.00001C1.72501 1.9751 0.637512 3.0251 0.637512 4.3376V17.3876C0.637512 18.6626 1.68751 19.7501 3.00001 19.7501H21C22.275 19.7501 23.3625 18.7001 23.3625 17.3876V4.3001C23.3625 3.0251 22.275 1.9751 21 1.9751ZM2.36251 8.9501H5.55001V12.6626H2.36251V8.9501ZM7.23751 8.9501H11.175V12.6626H7.23751V8.9501ZM11.175 14.3501V18.0251H7.23751V14.3501H11.175ZM12.8625 14.3501H16.8V18.0251H12.8625V14.3501ZM12.8625 12.6626V8.9501H16.8V12.6626H12.8625ZM18.45 8.9501H21.6375V12.6626H18.45V8.9501ZM3.00001 3.6626H4.95001V4.4501C4.95001 4.9001 5.32501 5.3126 5.81251 5.3126C6.30001 5.3126 6.67501 4.9376 6.67501 4.4501V3.6626H17.4V4.4501C17.4 4.9001 17.775 5.3126 18.2625 5.3126C18.75 5.3126 19.125 4.9376 19.125 4.4501V3.6626H21C21.375 3.6626 21.675 3.9626 21.675 4.3376V7.2626H2.36251V4.3376C2.36251 3.9626 2.62501 3.6626 3.00001 3.6626ZM2.36251 17.3501V14.3126H5.55001V17.9876H3.00001C2.62501 18.0251 2.36251 17.7251 2.36251 17.3501ZM21 18.0251H18.45V14.3501H21.6375V17.3876C21.675 17.7251 21.375 18.0251 21 18.0251Z" fill="#6693C9"/>
</svg>
