<svg width="24" height="24" viewBox="0 0 24 24" fill="none" xmlns="http://www.w3.org/2000/svg">
<path fill-rule="evenodd" clip-rule="evenodd" d="M8.00002 11.9999C8.00002 11.7719 8.07702 11.5449 8.23202 11.3599L13.232 5.35991C13.585 4.93591 14.216 4.87791 14.64 5.23191C15.064 5.58491 15.121 6.21491 14.768 6.63991L10.292 12.0109L14.607 17.3729C14.953 17.8029 14.885 18.4329 14.455 18.7789C14.025 19.1249 13.396 19.0569 13.049 18.6269L8.22102 12.6269C8.07402 12.4439 8.00002 12.2219 8.00002 11.9999Z" fill="#D7D7D7"/>
<mask id="mask0_2142_785" style="mask-type:luminance" maskUnits="userSpaceOnUse" x="8" y="5" width="7" height="14">
<path fill-rule="evenodd" clip-rule="evenodd" d="M8.00002 11.9999C8.00002 11.7719 8.07702 11.5449 8.23202 11.3599L13.232 5.35991C13.585 4.93591 14.216 4.87791 14.64 5.23191C15.064 5.58491 15.121 6.21491 14.768 6.63991L10.292 12.0109L14.607 17.3729C14.953 17.8029 14.885 18.4329 14.455 18.7789C14.025 19.1249 13.396 19.0569 13.049 18.6269L8.22102 12.6269C8.07402 12.4439 8.00002 12.2219 8.00002 11.9999Z" fill="white"/>
</mask>
<g mask="url(#mask0_2142_785)">
<rect x="24" width="24" height="24" transform="rotate(90 24 0)" fill="#D7D7D7"/>
</g>
</svg>
