<svg width="24" height="24" viewBox="0 0 24 24" fill="none" xmlns="http://www.w3.org/2000/svg">
<path fill-rule="evenodd" clip-rule="evenodd" d="M16 12.0001C16 12.2281 15.923 12.4551 15.768 12.6401L10.768 18.6401C10.415 19.0641 9.784 19.1221 9.36 18.7681C8.936 18.4151 8.879 17.7851 9.232 17.3601L13.708 11.9891L9.393 6.62709C9.047 6.19709 9.115 5.56709 9.545 5.22109C9.975 4.87509 10.604 4.94309 10.951 5.37309L15.779 11.3731C15.926 11.5561 16 11.7781 16 12.0001Z" fill="#D7D7D7"/>
<mask id="mask0_2142_786" style="mask-type:luminance" maskUnits="userSpaceOnUse" x="9" y="5" width="7" height="14">
<path fill-rule="evenodd" clip-rule="evenodd" d="M16 12.0001C16 12.2281 15.923 12.4551 15.768 12.6401L10.768 18.6401C10.415 19.0641 9.784 19.1221 9.36 18.7681C8.936 18.4151 8.879 17.7851 9.232 17.3601L13.708 11.9891L9.393 6.62709C9.047 6.19709 9.115 5.56709 9.545 5.22109C9.975 4.87509 10.604 4.94309 10.951 5.37309L15.779 11.3731C15.926 11.5561 16 11.7781 16 12.0001Z" fill="white"/>
</mask>
<g mask="url(#mask0_2142_786)">
<rect y="24" width="24" height="24" transform="rotate(-90 0 24)" fill="#D7D7D7"/>
</g>
</svg>
