<svg width="20" height="20" viewBox="0 0 20 20" fill="none" xmlns="http://www.w3.org/2000/svg">
<path fill-rule="evenodd" clip-rule="evenodd" d="M16.9194 11.1881C16.4811 11.0489 16.0127 11.2914 15.8727 11.7298C15.0919 14.1848 12.7936 15.8331 10.1536 15.8331C6.85191 15.8331 4.16691 13.2164 4.16691 9.99976C4.16691 6.78392 6.85191 4.16642 10.1536 4.16642C11.5936 4.16642 12.9519 4.66809 14.0244 5.55809L12.2194 5.26059C11.7611 5.17726 11.3361 5.49309 11.2611 5.94642C11.1861 6.40059 11.4936 6.82976 11.9477 6.90392L15.4861 7.48892C15.5319 7.49642 15.5786 7.49976 15.6227 7.49976C15.7219 7.49976 15.8186 7.48226 15.9086 7.44892C15.9394 7.43726 15.9644 7.41559 15.9944 7.39976C16.0494 7.37142 16.1069 7.34642 16.1544 7.30642C16.1844 7.28226 16.2036 7.24726 16.2294 7.21892C16.2686 7.17809 16.3102 7.13892 16.3394 7.08892C16.3602 7.05309 16.3686 7.01059 16.3844 6.97059C16.4044 6.92142 16.4311 6.87559 16.4411 6.82142L17.0694 3.48809C17.1544 3.03559 16.8569 2.59892 16.4044 2.51476C15.9536 2.43309 15.5161 2.72726 15.4311 3.17892L15.2044 4.37976C13.8177 3.17892 12.0402 2.49976 10.1536 2.49976C5.93358 2.49976 2.50024 5.86392 2.50024 9.99976C2.50024 14.1356 5.93358 17.4998 10.1536 17.4998C13.5219 17.4998 16.4586 15.3839 17.4611 12.2348C17.6002 11.7964 17.3577 11.3281 16.9194 11.1881Z" fill="#6693C9"/>
<mask id="mask0_2142_558" style="mask-type:luminance" maskUnits="userSpaceOnUse" x="2" y="2" width="16" height="16">
<path fill-rule="evenodd" clip-rule="evenodd" d="M16.9194 11.1881C16.4811 11.0489 16.0127 11.2914 15.8727 11.7298C15.0919 14.1848 12.7936 15.8331 10.1536 15.8331C6.85191 15.8331 4.16691 13.2164 4.16691 9.99976C4.16691 6.78392 6.85191 4.16642 10.1536 4.16642C11.5936 4.16642 12.9519 4.66809 14.0244 5.55809L12.2194 5.26059C11.7611 5.17726 11.3361 5.49309 11.2611 5.94642C11.1861 6.40059 11.4936 6.82976 11.9477 6.90392L15.4861 7.48892C15.5319 7.49642 15.5786 7.49976 15.6227 7.49976C15.7219 7.49976 15.8186 7.48226 15.9086 7.44892C15.9394 7.43726 15.9644 7.41559 15.9944 7.39976C16.0494 7.37142 16.1069 7.34642 16.1544 7.30642C16.1844 7.28226 16.2036 7.24726 16.2294 7.21892C16.2686 7.17809 16.3102 7.13892 16.3394 7.08892C16.3602 7.05309 16.3686 7.01059 16.3844 6.97059C16.4044 6.92142 16.4311 6.87559 16.4411 6.82142L17.0694 3.48809C17.1544 3.03559 16.8569 2.59892 16.4044 2.51476C15.9536 2.43309 15.5161 2.72726 15.4311 3.17892L15.2044 4.37976C13.8177 3.17892 12.0402 2.49976 10.1536 2.49976C5.93358 2.49976 2.50024 5.86392 2.50024 9.99976C2.50024 14.1356 5.93358 17.4998 10.1536 17.4998C13.5219 17.4998 16.4586 15.3839 17.4611 12.2348C17.6002 11.7964 17.3577 11.3281 16.9194 11.1881Z" fill="white"/>
</mask>
<g mask="url(#mask0_2142_558)">
<rect width="20" height="20" fill="#6693C9"/>
</g>
</svg>
