<svg width="24" height="24" viewBox="0 0 24 24" fill="none" xmlns="http://www.w3.org/2000/svg">
<path fill-rule="evenodd" clip-rule="evenodd" d="M15.9996 17L15.9996 4.00002C15.9996 3.44802 16.4466 3.00002 16.9996 3.00002C17.5526 3.00002 17.9996 3.44802 17.9996 4.00002V17.082L19.2096 15.524C19.5486 15.088 20.1776 15.009 20.6126 15.348C21.0496 15.687 21.1286 16.316 20.7896 16.751L17.7896 20.613C17.5986 20.86 17.3036 21.002 16.9906 21C16.6796 20.998 16.3866 20.85 16.1996 20.6L13.1996 16.6C13.0646 16.42 12.9996 16.209 12.9996 16.001C12.9996 15.697 13.1376 15.396 13.3996 15.2C13.8416 14.869 14.4686 14.958 14.7996 15.4L15.9996 17ZM8.9996 7.00002L8.9996 20C8.9996 20.552 8.5526 21 7.9996 21C7.4466 21 6.9996 20.552 6.9996 20L6.9996 6.91802L5.7896 8.47602C5.4506 8.91202 4.8216 8.99102 4.3866 8.65202C4.1326 8.45502 3.9996 8.16002 3.9996 7.86202C3.9996 7.64702 4.0676 7.43102 4.2096 7.24902L7.2096 3.38702C7.4006 3.14002 7.6956 2.99802 8.0086 3.00002C8.3196 3.00202 8.6126 3.15002 8.7996 3.40002L11.7996 7.40002C12.1306 7.84302 12.0416 8.46902 11.5996 8.80002C11.1576 9.13102 10.5306 9.04202 10.1996 8.60002L8.9996 7.00002Z" fill="#231F20"/>
<mask id="mask0_2076_610" style="mask-type:luminance" maskUnits="userSpaceOnUse" x="3" y="3" width="18" height="18">
<path fill-rule="evenodd" clip-rule="evenodd" d="M15.9996 17L15.9996 4.00002C15.9996 3.44802 16.4466 3.00002 16.9996 3.00002C17.5526 3.00002 17.9996 3.44802 17.9996 4.00002V17.082L19.2096 15.524C19.5486 15.088 20.1776 15.009 20.6126 15.348C21.0496 15.687 21.1286 16.316 20.7896 16.751L17.7896 20.613C17.5986 20.86 17.3036 21.002 16.9906 21C16.6796 20.998 16.3866 20.85 16.1996 20.6L13.1996 16.6C13.0646 16.42 12.9996 16.209 12.9996 16.001C12.9996 15.697 13.1376 15.396 13.3996 15.2C13.8416 14.869 14.4686 14.958 14.7996 15.4L15.9996 17ZM8.9996 7.00002L8.9996 20C8.9996 20.552 8.5526 21 7.9996 21C7.4466 21 6.9996 20.552 6.9996 20L6.9996 6.91802L5.7896 8.47602C5.4506 8.91202 4.8216 8.99102 4.3866 8.65202C4.1326 8.45502 3.9996 8.16002 3.9996 7.86202C3.9996 7.64702 4.0676 7.43102 4.2096 7.24902L7.2096 3.38702C7.4006 3.14002 7.6956 2.99802 8.0086 3.00002C8.3196 3.00202 8.6126 3.15002 8.7996 3.40002L11.7996 7.40002C12.1306 7.84302 12.0416 8.46902 11.5996 8.80002C11.1576 9.13102 10.5306 9.04202 10.1996 8.60002L8.9996 7.00002Z" fill="white"/>
</mask>
<g mask="url(#mask0_2076_610)">
<rect x="24" width="24" height="24" transform="rotate(90 24 0)" fill="#6693C9"/>
</g>
</svg>
