<svg width="20" height="20" viewBox="0 0 20 20" fill="none" xmlns="http://www.w3.org/2000/svg">
<path d="M15.3437 4.84375L16.5937 3.40625C16.8437 3.125 16.8125 2.65625 16.5313 2.40625C16.1875 2.15625 15.75 2.1875 15.5 2.5L14.1875 4.0625C13.1563 3.46875 11.9687 3.0625 10.7187 2.96875V1.9375H12.7188C13.0938 1.9375 13.4063 1.625 13.4063 1.25C13.4063 0.875 13.0938 0.5625 12.7188 0.5625H7.3125C6.9375 0.5625 6.625 0.875 6.625 1.25C6.625 1.625 6.9375 1.9375 7.3125 1.9375H9.3125V2.9375C5.0625 3.28125 1.71875 6.84375 1.71875 11.1875C1.71875 15.75 5.4375 19.4688 10 19.4688C14.5625 19.4688 18.2812 15.75 18.2812 11.1875C18.2812 8.65625 17.125 6.375 15.3437 4.84375ZM10 18.0625C6.21875 18.0625 3.125 14.9688 3.125 11.1875C3.125 7.40625 6.21875 4.3125 10 4.3125C13.7813 4.3125 16.875 7.40625 16.875 11.1875C16.875 14.9688 13.7813 18.0625 10 18.0625Z" fill="#6693C9"/>
<path d="M10.6875 11.0625V7.4375C10.6875 7.0625 10.375 6.75 10 6.75C9.625 6.75 9.3125 7.0625 9.3125 7.4375V11.3437C9.3125 11.5312 9.375 11.7188 9.53125 11.8438L11.8438 14.1562C11.9688 14.2812 12.1563 14.375 12.3438 14.375C12.5313 14.375 12.7188 14.3125 12.8438 14.1562C13.125 13.875 13.125 13.4375 12.8438 13.1562L10.6875 11.0625Z" fill="#6693C9"/>
</svg>
