<svg width="24" height="24" viewBox="0 0 24 24" fill="none" xmlns="http://www.w3.org/2000/svg">
<path d="M18.4125 5.81255L19.9125 4.08755C20.2125 3.75005 20.175 3.18755 19.8375 2.88755C19.425 2.58755 18.9 2.62505 18.6 3.00005L17.025 4.87505C15.7875 4.16255 14.3625 3.67505 12.8625 3.56255V2.32505H15.2625C15.7125 2.32505 16.0875 1.95005 16.0875 1.50005C16.0875 1.05005 15.7125 0.675049 15.2625 0.675049H8.775C8.325 0.675049 7.95 1.05005 7.95 1.50005C7.95 1.95005 8.325 2.32505 8.775 2.32505H11.175V3.52505C6.075 3.93755 2.0625 8.21255 2.0625 13.425C2.0625 18.9 6.525 23.3625 12 23.3625C17.475 23.3625 21.9375 18.9 21.9375 13.425C21.9375 10.3875 20.55 7.65005 18.4125 5.81255ZM12 21.675C7.4625 21.675 3.75 17.9625 3.75 13.425C3.75 8.88755 7.4625 5.17505 12 5.17505C16.5375 5.17505 20.25 8.88755 20.25 13.425C20.25 17.9625 16.5375 21.675 12 21.675Z" fill="#6693C9"/>
<path d="M12.825 13.2751V8.9251C12.825 8.4751 12.45 8.1001 12 8.1001C11.55 8.1001 11.175 8.4751 11.175 8.9251V13.6126C11.175 13.8376 11.25 14.0626 11.4375 14.2126L14.2125 16.9876C14.3625 17.1376 14.5875 17.2501 14.8125 17.2501C15.0375 17.2501 15.2625 17.1751 15.4125 16.9876C15.75 16.6501 15.75 16.1251 15.4125 15.7876L12.825 13.2751Z" fill="#6693C9"/>
</svg>
